<?xml version="1.0" encoding="UTF-8"?>
<svg width="302px" height="54px" viewBox="0 0 302 54" version="1.1" xmlns="http://www.w3.org/2000/svg" xmlns:xlink="http://www.w3.org/1999/xlink">
    <!-- Generator: Sketch 51.2 (57519) - http://www.bohemiancoding.com/sketch -->
    <title>Group 46</title>
    <desc>Created with Sketch.</desc>
    <defs></defs>
    <g id="HOMEE" stroke="none" stroke-width="1" fill="none" fill-rule="evenodd">
        <g id="Home_makerobos" transform="translate(-78.000000, -127.000000)">
            <g id="Group-46" transform="translate(78.000000, 127.000000)">
                <path d="M25.3515625,53 L20.3242188,53 L20.3242188,35 C20.3242188,34.6484357 20.2568366,34.320314 20.1220703,34.015625 C19.987304,33.710936 19.8056652,33.4443371 19.5771484,33.2158203 C19.3486317,32.9873035 19.0820328,32.8085944 18.7773438,32.6796875 C18.4726547,32.5507806 18.144533,32.4863281 17.7929688,32.4863281 C17.4414045,32.4863281 17.1132828,32.5507806 16.8085938,32.6796875 C16.5039047,32.8085944 16.2373058,32.9873035 16.0087891,33.2158203 C15.7802723,33.4443371 15.6015631,33.710936 15.4726562,34.015625 C15.3437494,34.320314 15.2792969,34.6484357 15.2792969,35 L15.2792969,53 L10.234375,53 L10.234375,35 C10.234375,34.6484357 10.1699225,34.320314 10.0410156,34.015625 C9.91210873,33.710936 9.73339958,33.4443371 9.50488281,33.2158203 C9.27636604,32.9873035 9.00976715,32.8085944 8.70507812,32.6796875 C8.4003891,32.5507806 8.07226738,32.4863281 7.72070313,32.4863281 C7.36913887,32.4863281 7.04101715,32.5507806 6.73632812,32.6796875 C6.4316391,32.8085944 6.16504021,32.9873035 5.93652344,33.2158203 C5.70800667,33.4443371 5.52929752,33.710936 5.40039062,34.015625 C5.27148373,34.320314 5.20703125,34.6484357 5.20703125,35 L5.20703125,53 L0.162109375,53 L0.162109375,35 C0.162109375,33.957026 0.358396475,32.9755905 0.750976562,32.0556641 C1.14355665,31.1357376 1.68261376,30.3330112 2.36816406,29.6474609 C3.05371437,28.9619106 3.85644071,28.4228535 4.77636719,28.0302734 C5.69629366,27.6376933 6.67772916,27.4414062 7.72070313,27.4414062 C8.65820781,27.4414062 9.56054254,27.6083968 10.4277344,27.9423828 C11.2949262,28.2763689 12.0742153,28.7597625 12.765625,29.3925781 C13.4570347,28.7597625 14.2333941,28.2763689 15.0947266,27.9423828 C15.956059,27.6083968 16.8554641,27.4414062 17.7929688,27.4414062 C18.8359427,27.4414062 19.8173782,27.6376933 20.7373047,28.0302734 C21.6572312,28.4228535 22.4599575,28.9619106 23.1455078,29.6474609 C23.8310581,30.3330112 24.3701152,31.1357376 24.7626953,32.0556641 C25.1552754,32.9755905 25.3515625,33.957026 25.3515625,35 L25.3515625,53 Z M48.2875,42.9277344 L48.2875,37.8828125 C48.2875,37.1914028 48.1556654,36.538089 47.8919922,35.9228516 C47.628319,35.3076141 47.267971,34.7714867 46.8109375,34.3144531 C46.353904,33.8574196 45.8177765,33.4970716 45.2025391,33.2333984 C44.5873016,32.9697252 43.9339878,32.8378906 43.2425781,32.8378906 C42.5511684,32.8378906 41.8978546,32.9697252 41.2826172,33.2333984 C40.6673797,33.4970716 40.1312523,33.8574196 39.6742187,34.3144531 C39.2171852,34.7714867 38.8568373,35.3076141 38.5931641,35.9228516 C38.3294909,36.538089 38.1976562,37.1914028 38.1976562,37.8828125 L38.1976562,42.9277344 L48.2875,42.9277344 Z M53.3324219,53 L48.2875,53 L48.2875,47.9550781 L38.1976562,47.9550781 L38.1976562,53 L33.1703125,53 L33.1703125,37.8828125 C33.1703125,36.4882743 33.4339817,35.1787171 33.9613281,33.9541016 C34.4886745,32.7294861 35.2064408,31.6601608 36.1146484,30.7460938 C37.0228561,29.8320267 38.0892517,29.1113308 39.3138672,28.5839844 C40.5384827,28.056638 41.8480399,27.7929688 43.2425781,27.7929688 C44.6371163,27.7929688 45.9466736,28.056638 47.1712891,28.5839844 C48.3959046,29.1113308 49.4652298,29.8320267 50.3792969,30.7460938 C51.2933639,31.6601608 52.0140599,32.7294861 52.5414062,33.9541016 C53.0687526,35.1787171 53.3324219,36.4882743 53.3324219,37.8828125 L53.3324219,53 Z M66.3542969,53 L61.309375,53 L61.309375,27.7929688 L66.3542969,27.7929688 L66.3542969,40.3964844 L75.7410156,27.7929688 L81.4714844,27.7929688 L73.5085937,38.4277344 L81.4714844,53 L75.7410156,53 L70.2039062,42.8046875 L66.3542969,47.9550781 L66.3542969,53 Z M104.688672,53 L87.409375,53 L87.409375,27.7929688 L104.688672,27.7929688 L104.688672,32.8378906 L92.4542969,32.8378906 L92.4542969,37.8828125 L100.733594,37.8828125 L100.733594,42.9277344 L92.4542969,42.9277344 L92.4542969,47.9550781 L104.688672,47.9550781 L104.688672,53 Z M116.866797,32.8378906 L116.866797,42.9277344 L121.911719,42.9277344 C122.603128,42.9277344 123.253513,42.7958998 123.862891,42.5322266 C124.472269,42.2685534 125.005466,41.9082054 125.4625,41.4511719 C125.919534,40.9941383 126.279881,40.4580109 126.543555,39.8427734 C126.807228,39.227536 126.939063,38.5742222 126.939063,37.8828125 C126.939063,37.1914028 126.807228,36.538089 126.543555,35.9228516 C126.279881,35.3076141 125.919534,34.7714867 125.4625,34.3144531 C125.005466,33.8574196 124.472269,33.4970716 123.862891,33.2333984 C123.253513,32.9697252 122.603128,32.8378906 121.911719,32.8378906 L116.866797,32.8378906 Z M116.866797,53 L111.821875,53 L111.821875,27.7929688 L121.911719,27.7929688 C122.837505,27.7929688 123.728121,27.9130847 124.583594,28.1533203 C125.439067,28.3935559 126.238863,28.7333962 126.983008,29.1728516 C127.727152,29.6123069 128.406833,30.1396454 129.02207,30.7548828 C129.637308,31.3701203 130.164646,32.0527306 130.604102,32.8027344 C131.043557,33.5527381 131.383397,34.3554645 131.623633,35.2109375 C131.863868,36.0664105 131.983984,36.9570266 131.983984,37.8828125 C131.983984,38.7500043 131.875587,39.5937459 131.658789,40.4140625 C131.441991,41.2343791 131.131447,42.0136682 130.727148,42.7519531 C130.32285,43.4902381 129.827737,44.1699188 129.241797,44.7910156 C128.655856,45.4121125 127.999613,45.9511696 127.273047,46.4082031 L130.067969,53 L124.706641,53 L122.509375,47.9199219 L116.866797,47.9550781 L116.866797,53 Z M163.585938,40.5019531 C163.585938,41.6972716 163.430666,42.8486273 163.120117,43.9560547 C162.809569,45.0634821 162.37305,46.1005811 161.810547,47.0673828 C161.248044,48.0341845 160.568363,48.9160116 159.771484,49.7128906 C158.974605,50.5097696 158.095708,51.19238 157.134766,51.7607422 C156.173823,52.3291044 155.136724,52.7685531 154.023438,53.0791016 C152.910151,53.38965 151.755865,53.5449219 150.560547,53.5449219 C149.365228,53.5449219 148.213873,53.38965 147.106445,53.0791016 C145.999018,52.7685531 144.961919,52.3291044 143.995117,51.7607422 C143.028315,51.19238 142.146488,50.5097696 141.349609,49.7128906 C140.55273,48.9160116 139.87012,48.0341845 139.301758,47.0673828 C138.733396,46.1005811 138.293947,45.0634821 137.983398,43.9560547 C137.67285,42.8486273 137.517578,41.6972716 137.517578,40.5019531 C137.517578,39.3066346 137.67285,38.1523493 137.983398,37.0390625 C138.293947,35.9257757 138.733396,34.8886767 139.301758,33.9277344 C139.87012,32.9667921 140.55273,32.0878946 141.349609,31.2910156 C142.146488,30.4941366 143.028315,29.8144559 143.995117,29.2519531 C144.961919,28.6894503 145.999018,28.2529312 147.106445,27.9423828 C148.213873,27.6318344 149.365228,27.4765625 150.560547,27.4765625 C151.755865,27.4765625 152.910151,27.6318344 154.023438,27.9423828 C155.136724,28.2529312 156.173823,28.6894503 157.134766,29.2519531 C158.095708,29.8144559 158.974605,30.4941366 159.771484,31.2910156 C160.568363,32.0878946 161.248044,32.9667921 161.810547,33.9277344 C162.37305,34.8886767 162.809569,35.9257757 163.120117,37.0390625 C163.430666,38.1523493 163.585938,39.3066346 163.585938,40.5019531 Z M158.576172,40.5019531 C158.576172,39.4003851 158.365236,38.3603565 157.943359,37.3818359 C157.521482,36.4033154 156.950199,35.5537145 156.229492,34.8330078 C155.508785,34.1123011 154.659185,33.5410177 153.680664,33.1191406 C152.702144,32.6972635 151.662115,32.4863281 150.560547,32.4863281 C149.44726,32.4863281 148.404302,32.6972635 147.431641,33.1191406 C146.45898,33.5410177 145.609379,34.1123011 144.882812,34.8330078 C144.156246,35.5537145 143.582033,36.4033154 143.160156,37.3818359 C142.738279,38.3603565 142.527344,39.4003851 142.527344,40.5019531 C142.527344,41.6035211 142.738279,42.6376905 143.160156,43.6044922 C143.582033,44.5712939 144.156246,45.4179651 144.882812,46.1445312 C145.609379,46.8710974 146.45898,47.4453104 147.431641,47.8671875 C148.404302,48.2890646 149.44726,48.5 150.560547,48.5 C151.662115,48.5 152.702144,48.2890646 153.680664,47.8671875 C154.659185,47.4453104 155.508785,46.8710974 156.229492,46.1445312 C156.950199,45.4179651 157.521482,44.5712939 157.943359,43.6044922 C158.365236,42.6376905 158.576172,41.6035211 158.576172,40.5019531 Z M190.652734,45.4414062 C190.652734,46.4843802 190.453518,47.4628861 190.055078,48.3769531 C189.656639,49.2910202 189.114652,50.0908169 188.429102,50.7763672 C187.743551,51.4619175 186.943755,52.0039043 186.029688,52.4023438 C185.11562,52.8007832 184.137115,53 183.094141,53 L170.490625,53 L170.490625,27.7929688 L183.094141,27.7929688 C184.137115,27.7929688 185.11562,27.9921855 186.029688,28.390625 C186.943755,28.7890645 187.743551,29.3310513 188.429102,30.0166016 C189.114652,30.7021519 189.656639,31.5019486 190.055078,32.4160156 C190.453518,33.3300827 190.652734,34.3085885 190.652734,35.3515625 C190.652734,35.8203148 190.588282,36.3007788 190.459375,36.7929688 C190.330468,37.2851587 190.148829,37.7597633 189.914453,38.2167969 C189.680077,38.6738304 189.39883,39.0898419 189.070703,39.4648438 C188.742576,39.8398456 188.379299,40.1503894 187.980859,40.3964844 C188.391018,40.6191417 188.760155,40.9208965 189.088281,41.3017578 C189.416408,41.6826191 189.697655,42.1015602 189.932031,42.5585938 C190.166407,43.0156273 190.345117,43.4931616 190.468164,43.9912109 C190.591212,44.4892603 190.652734,44.9726539 190.652734,45.4414062 Z M175.535547,47.9550781 L183.094141,47.9550781 C183.445705,47.9550781 183.773827,47.8906256 184.078516,47.7617188 C184.383205,47.6328119 184.649804,47.4541027 184.87832,47.2255859 C185.106837,46.9970692 185.285546,46.7304703 185.414453,46.4257812 C185.54336,46.1210922 185.607813,45.7929705 185.607813,45.4414062 C185.607813,45.089842 185.54336,44.7617203 185.414453,44.4570312 C185.285546,44.1523422 185.106837,43.8857433 184.87832,43.6572266 C184.649804,43.4287098 184.383205,43.2500006 184.078516,43.1210938 C183.773827,42.9921869 183.445705,42.9277344 183.094141,42.9277344 L175.535547,42.9277344 L175.535547,47.9550781 Z M175.535547,37.8828125 L183.094141,37.8828125 C183.445705,37.8828125 183.773827,37.81836 184.078516,37.6894531 C184.383205,37.5605462 184.649804,37.3818371 184.87832,37.1533203 C185.106837,36.9248035 185.285546,36.655275 185.414453,36.3447266 C185.54336,36.0341781 185.607813,35.7031268 185.607813,35.3515625 C185.607813,34.9999982 185.54336,34.6718765 185.414453,34.3671875 C185.285546,34.0624985 185.106837,33.7958996 184.87832,33.5673828 C184.649804,33.338866 184.383205,33.1601569 184.078516,33.03125 C183.773827,32.9023431 183.445705,32.8378906 183.094141,32.8378906 L175.535547,32.8378906 L175.535547,37.8828125 Z M222.764453,40.5019531 C222.764453,41.6972716 222.609181,42.8486273 222.298633,43.9560547 C221.988084,45.0634821 221.551565,46.1005811 220.989062,47.0673828 C220.42656,48.0341845 219.746879,48.9160116 218.95,49.7128906 C218.153121,50.5097696 217.274224,51.19238 216.313281,51.7607422 C215.352339,52.3291044 214.31524,52.7685531 213.201953,53.0791016 C212.088666,53.38965 210.934381,53.5449219 209.739062,53.5449219 C208.543744,53.5449219 207.392388,53.38965 206.284961,53.0791016 C205.177534,52.7685531 204.140435,52.3291044 203.173633,51.7607422 C202.206831,51.19238 201.325004,50.5097696 200.528125,49.7128906 C199.731246,48.9160116 199.048636,48.0341845 198.480273,47.0673828 C197.911911,46.1005811 197.472462,45.0634821 197.161914,43.9560547 C196.851366,42.8486273 196.696094,41.6972716 196.696094,40.5019531 C196.696094,39.3066346 196.851366,38.1523493 197.161914,37.0390625 C197.472462,35.9257757 197.911911,34.8886767 198.480273,33.9277344 C199.048636,32.9667921 199.731246,32.0878946 200.528125,31.2910156 C201.325004,30.4941366 202.206831,29.8144559 203.173633,29.2519531 C204.140435,28.6894503 205.177534,28.2529312 206.284961,27.9423828 C207.392388,27.6318344 208.543744,27.4765625 209.739062,27.4765625 C210.934381,27.4765625 212.088666,27.6318344 213.201953,27.9423828 C214.31524,28.2529312 215.352339,28.6894503 216.313281,29.2519531 C217.274224,29.8144559 218.153121,30.4941366 218.95,31.2910156 C219.746879,32.0878946 220.42656,32.9667921 220.989062,33.9277344 C221.551565,34.8886767 221.988084,35.9257757 222.298633,37.0390625 C222.609181,38.1523493 222.764453,39.3066346 222.764453,40.5019531 Z M217.754687,40.5019531 C217.754687,39.4003851 217.543752,38.3603565 217.121875,37.3818359 C216.699998,36.4033154 216.128715,35.5537145 215.408008,34.8330078 C214.687301,34.1123011 213.8377,33.5410177 212.85918,33.1191406 C211.880659,32.6972635 210.840631,32.4863281 209.739062,32.4863281 C208.625776,32.4863281 207.582817,32.6972635 206.610156,33.1191406 C205.637495,33.5410177 204.787894,34.1123011 204.061328,34.8330078 C203.334762,35.5537145 202.760549,36.4033154 202.338672,37.3818359 C201.916795,38.3603565 201.705859,39.4003851 201.705859,40.5019531 C201.705859,41.6035211 201.916795,42.6376905 202.338672,43.6044922 C202.760549,44.5712939 203.334762,45.4179651 204.061328,46.1445312 C204.787894,46.8710974 205.637495,47.4453104 206.610156,47.8671875 C207.582817,48.2890646 208.625776,48.5 209.739062,48.5 C210.840631,48.5 211.880659,48.2890646 212.85918,47.8671875 C213.8377,47.4453104 214.687301,46.8710974 215.408008,46.1445312 C216.128715,45.4179651 216.699998,44.5712939 217.121875,43.6044922 C217.543752,42.6376905 217.754687,41.6035211 217.754687,40.5019531 Z M228.192578,35.3515625 C228.192578,34.3085885 228.391795,33.3300827 228.790234,32.4160156 C229.188674,31.5019486 229.730661,30.7021519 230.416211,30.0166016 C231.101761,29.3310513 231.901558,28.7890645 232.815625,28.390625 C233.729692,27.9921855 234.708198,27.7929688 235.751172,27.7929688 L247.317578,27.7929688 L247.317578,32.8378906 L235.751172,32.8378906 C235.399608,32.8378906 235.071486,32.9023431 234.766797,33.03125 C234.462108,33.1601569 234.195509,33.338866 233.966992,33.5673828 C233.738475,33.7958996 233.559766,34.0624985 233.430859,34.3671875 C233.301952,34.6718765 233.2375,34.9999982 233.2375,35.3515625 C233.2375,35.7031268 233.301952,36.0341781 233.430859,36.3447266 C233.559766,36.655275 233.738475,36.9248035 233.966992,37.1533203 C234.195509,37.3818371 234.462108,37.5605462 234.766797,37.6894531 C235.071486,37.81836 235.399608,37.8828125 235.751172,37.8828125 L240.796094,37.8828125 C241.839068,37.8828125 242.820503,38.0790996 243.74043,38.4716797 C244.660356,38.8642598 245.463083,39.4033169 246.148633,40.0888672 C246.834183,40.7744175 247.37324,41.5771438 247.76582,42.4970703 C248.1584,43.4169968 248.354687,44.3984323 248.354687,45.4414062 C248.354687,46.4843802 248.1584,47.4628861 247.76582,48.3769531 C247.37324,49.2910202 246.834183,50.0908169 246.148633,50.7763672 C245.463083,51.4619175 244.660356,52.0039043 243.74043,52.4023438 C242.820503,52.8007832 241.839068,53 240.796094,53 L229.598828,53 L229.598828,47.9550781 L240.796094,47.9550781 C241.147658,47.9550781 241.47578,47.8906256 241.780469,47.7617188 C242.085158,47.6328119 242.351757,47.4541027 242.580273,47.2255859 C242.80879,46.9970692 242.987499,46.7304703 243.116406,46.4257812 C243.245313,46.1210922 243.309766,45.7929705 243.309766,45.4414062 C243.309766,45.089842 243.245313,44.7617203 243.116406,44.4570312 C242.987499,44.1523422 242.80879,43.8857433 242.580273,43.6572266 C242.351757,43.4287098 242.085158,43.2500006 241.780469,43.1210938 C241.47578,42.9921869 241.147658,42.9277344 240.796094,42.9277344 L235.751172,42.9277344 C234.708198,42.9277344 233.729692,42.7285176 232.815625,42.3300781 C231.901558,41.9316386 231.101761,41.3896519 230.416211,40.7041016 C229.730661,40.0185513 229.188674,39.2158249 228.790234,38.2958984 C228.391795,37.375972 228.192578,36.3945365 228.192578,35.3515625 Z" id="MAKEROBOS" fill="#3b17f7"></path>
                <g id="Group-40" transform="translate(265.000000, 0.000000)" fill-rule="nonzero">
                    <g id="Group-8" transform="translate(3.000000, 0.000000)" fill="#0B0059">
                        <path d="M31.0454545,0 L17.3181818,0 L16.5909091,0 L3.04545455,0 C1.36363636,0 0,1.94162393 0,4.40101425 L0,32.7487237 L0,42.8451681 C0,42.9746097 0.0909090909,43.0393305 0.181818182,42.9746097 L9.31818182,32.8134445 C9.31818182,32.8134445 9.36363636,32.7487237 9.40909091,32.7487237 L30.9545455,32.7487237 C32.6363636,32.7487237 34,30.8070997 34,28.3477094 C34,22.7541168 34,18.5589223 34,15.762126 C34,13.1942873 34,9.34252927 34,4.20685185 C34,1.87690314 32.6818182,0 31.0454545,0 Z" id="Shape"></path>
                    </g>
                    <g id="Group-8" fill="#3b17f7">
                        <path d="M30.9555497,0 L17.2853992,0 L16.5611529,0 L3.07206396,0 C1.3972442,0 0.0392822259,1.83777965 0.0392822259,4.16563388 L0.0392822259,30.9972168 L0.0392822259,40.553671 C0.0392822259,40.6761897 0.129813024,40.737449 0.220343822,40.6761897 L9.31868902,31.0584761 C9.31868902,31.0584761 9.36395441,30.9972168 9.40921981,30.9972168 L30.8650189,30.9972168 C32.5398387,30.9972168 33.8978007,29.1594372 33.8978007,26.8315829 C33.8978007,21.5371536 33.8978007,17.5663316 33.8978007,14.9191169 C33.8978007,12.4886145 33.8978007,8.84286082 33.8978007,3.98185592 C33.8978007,1.77652033 32.5851041,0 30.9555497,0 Z" id="Shape"></path>
                    </g>
                </g>
                <path d="M283.5,23.5390757 C287.642136,23.5390757 291,20.6114318 291,17 C285.034973,17 279.357864,17 276,17 C276,20.6114318 279.357864,23.5390757 283.5,23.5390757 Z" id="Oval-9" fill="#FFFFFF" fill-rule="nonzero"></path>
            </g>
        </g>
    </g>
</svg>